<svg xmlns="http://www.w3.org/2000/svg" width="219.564" height="50.52" viewBox="0 0 219.564 50.52">
  <g id="e2eHiring_Logo" data-name="e2eHiring Logo" transform="translate(-13.1 -18.7)">
    <path id="Path_1" data-name="Path 1" d="M26.106,56.6c7.487,0,12.582,5.6,12.582,13.817v1.467H20.047c.425,3.165,2.972,5.828,7.217,5.828A10.175,10.175,0,0,0,33.98,75.2l2.895,4.245c-2.509,2.277-6.445,3.474-10.343,3.474-7.642,0-13.431-5.133-13.431-13.2A12.775,12.775,0,0,1,26.106,56.6ZM19.931,67.406H32.32a5.8,5.8,0,0,0-6.175-5.558A6.03,6.03,0,0,0,19.931,67.406Z" transform="translate(0 -23.273)" fill="#fff"/>
    <path id="Path_2" data-name="Path 2" d="M88.218,75.839C99.1,67.812,102.3,65.071,102.3,61.791c0-2.316-2.123-3.474-4.361-3.474a9.383,9.383,0,0,0-7.1,3.088L87.6,57.661A13.526,13.526,0,0,1,97.866,53.3c5.673,0,10.189,3.2,10.189,8.491,0,4.554-3.744,8.491-10.884,13.547h11.115v4.979H88.218Z" transform="translate(-45.747 -21.246)" fill="#fff"/>
    <path id="Path_3" data-name="Path 3" d="M165.945,56.6c7.487,0,12.582,5.6,12.582,13.817v1.467h-18.68c.425,3.165,2.972,5.828,7.217,5.828A10.175,10.175,0,0,0,173.78,75.2l2.895,4.245c-2.509,2.277-6.445,3.474-10.343,3.474-7.642,0-13.431-5.133-13.431-13.2A12.807,12.807,0,0,1,165.945,56.6Zm-6.214,10.806H172.12a5.8,5.8,0,0,0-6.175-5.558A6.03,6.03,0,0,0,159.731,67.406Z" transform="translate(-85.845 -23.273)" fill="#fff"/>
    <path id="Path_4" data-name="Path 4" d="M323.9,32.137a3.937,3.937,0,1,1,3.937,3.937A3.953,3.953,0,0,1,323.9,32.137Zm.656,7.642h6.6V64.9h-6.6Z" transform="translate(-190.848 -5.834)" fill="#fff"/>
    <path id="Path_5" data-name="Path 5" d="M359.7,57.279h6.6v3.435a10.774,10.774,0,0,1,7.989-4.014v6.445a7.66,7.66,0,0,0-1.814-.193c-2.2,0-5.094,1.235-6.175,2.856V82.4h-6.6Z" transform="translate(-212.831 -23.334)" fill="#fff"/>
    <path id="Path_6" data-name="Path 6" d="M406.5,32.137a3.937,3.937,0,1,1,3.937,3.937A3.953,3.953,0,0,1,406.5,32.137Zm.656,7.642h6.6V64.9h-6.6Z" transform="translate(-241.569 -5.834)" fill="#fff"/>
    <path id="Path_7" data-name="Path 7" d="M459.243,67.136c0-3.474-1.814-4.67-4.631-4.67a7.154,7.154,0,0,0-5.712,2.972v16.9h-6.6V57.218h6.6V60.5a11.486,11.486,0,0,1,8.8-3.9c5.519,0,8.143,3.126,8.143,7.989V82.3h-6.6Z" transform="translate(-263.552 -23.273)" fill="#fff"/>
    <path id="Path_8" data-name="Path 8" d="M520.091,83.964a9.976,9.976,0,0,0,7.835,3.126c3.165,0,6.908-1.389,6.908-6.329V78.213a9.707,9.707,0,0,1-7.757,3.937C520.786,82.15,516,77.711,516,69.375c0-8.221,4.747-12.775,11.077-12.775a9.736,9.736,0,0,1,7.757,3.859V57.218h6.638V80.606c0,9.571-7.372,11.887-13.585,11.887-4.323,0-7.642-1-10.807-3.744Zm14.782-18.641a7.14,7.14,0,0,0-5.673-2.856c-3.744,0-6.33,2.586-6.33,6.908s2.586,6.908,6.33,6.908a7.252,7.252,0,0,0,5.673-2.856Z" transform="translate(-308.808 -23.273)" fill="#fff"/>
    <g id="Group_1" data-name="Group 1" transform="translate(96.387 18.7)">
      <path id="Path_9" data-name="Path 9" d="M251.285,49.2V63.055h0V79.381h8.529V49.2Zm0,15.9V63.055h0Zm-1.737-6.137h-4.631l1.158,4.168h5.172V58.964Zm-10.613,0h-1.467V49.2H228.9V79.342h8.568V77.22l-.077-14.087H243.1l-1.312-4.168Z" transform="translate(-228.9 -37.429)" fill="#de373a"/>
      <path id="Path_10" data-name="Path 10" d="M229.077,19.2h7.835c0,4.979-1.7,9.031-7.217,9.031H229Z" transform="translate(-228.961 -19.007)" fill="#de373a"/>
      <path id="Path_11" data-name="Path 11" d="M287.1,27.924v-.849c0-6.407,3.859-8.375,8.607-8.375v9.07Z" transform="translate(-264.638 -18.7)" fill="#de373a"/>
    </g>
  </g>
</svg>
