<svg xmlns="http://www.w3.org/2000/svg" width="108.297" height="38.363" viewBox="0 0 108.297 38.363">
  <g id="e2e_recruiter_Light_bckground" data-name="e2e_recruiter_Light bckground" transform="translate(0.228)">
    <g id="Layer_1" data-name="Layer 1" transform="translate(-0.228)">
      <path id="Path_42591" data-name="Path 42591" d="M6.4,15.149c3.688,0,6.207,2.766,6.207,6.82v.713H3.405A3.327,3.327,0,0,0,6.97,25.534,5.057,5.057,0,0,0,10.3,24.3l1.426,2.1a7.606,7.606,0,0,1-5.11,1.745A6.275,6.275,0,0,1,0,21.638a6.3,6.3,0,0,1,6.408-6.488ZM3.357,20.482H9.451A2.852,2.852,0,0,0,6.4,17.743a2.971,2.971,0,0,0-3.047,2.743Z" transform="translate(0.004 -7.998)" fill="#252d41"/>
      <path id="Path_42592" data-name="Path 42592" d="M30.125,24.93C35.5,20.976,37.074,19.6,37.074,18c0-1.141-1.037-1.711-2.144-1.711a4.687,4.687,0,0,0-3.508,1.517L29.83,15.961a6.684,6.684,0,0,1,5.057-2.148c2.795,0,5.019,1.578,5.019,4.193,0,2.248-1.844,4.2-5.371,6.654h5.471v2.462H30.125Z" transform="translate(-15.651 -6.954)" fill="#252d41"/>
      <path id="Path_42593" data-name="Path 42593" d="M62.4,15.149c3.688,0,6.18,2.766,6.18,6.82v.713H59.405a3.319,3.319,0,0,0,3.56,2.852A5.057,5.057,0,0,0,66.292,24.3l1.426,2.1a7.6,7.6,0,0,1-5.11,1.745A6.274,6.274,0,0,1,56,21.638a6.3,6.3,0,0,1,6.408-6.488Zm-3.052,5.332H65.46a2.852,2.852,0,0,0-3.052-2.743,2.976,2.976,0,0,0-3.056,2.743Z" transform="translate(-29.378 -7.998)" fill="#252d41"/>
      <path id="Path_42594" data-name="Path 42594" d="M124.43,5.719a1.949,1.949,0,1,1,1.949,1.949A1.949,1.949,0,0,1,124.43,5.719Zm.333,3.77h3.265V21.87h-3.256Z" transform="translate(-65.286 -1.684)" fill="#252d41"/>
      <path id="Path_42595" data-name="Path 42595" d="M138.78,15.485h3.256v1.692a5.294,5.294,0,0,1,3.95-1.978v3.18a4.4,4.4,0,0,0-.9-.1,4.1,4.1,0,0,0-3.052,1.426v8.161H138.78Z" transform="translate(-72.815 -7.752)" fill="#252d41"/>
      <path id="Path_42596" data-name="Path 42596" d="M157.5,5.719a1.949,1.949,0,1,1,1.949,1.949A1.949,1.949,0,0,1,157.5,5.719Zm.333,3.77h3.256V21.87h-3.256Z" transform="translate(-82.638 -1.684)" fill="#252d41"/>
      <path id="Path_42597" data-name="Path 42597" d="M180.205,20.41a2.012,2.012,0,0,0-2.282-2.3,3.527,3.527,0,0,0-2.819,1.464V27.9H171.85V15.542h3.256v1.613a5.656,5.656,0,0,1,4.33-1.9,3.6,3.6,0,0,1,4.026,3.95V27.9h-3.256Z" transform="translate(-90.166 -7.803)" fill="#252d41"/>
      <path id="Path_42598" data-name="Path 42598" d="M203.427,28.663A4.911,4.911,0,0,0,207.3,30.2c1.564,0,3.408-.691,3.408-3.128v-1.26a4.815,4.815,0,0,1-3.8,1.949c-3.1,0-5.462-2.182-5.462-6.307,0-4.05,2.334-6.307,5.462-6.307a4.753,4.753,0,0,1,3.8,1.9V15.46h3.285V27c0,4.715-3.641,5.871-6.692,5.871a7.455,7.455,0,0,1-5.332-1.844Zm7.277-9.207a3.531,3.531,0,0,0-2.79-1.426,3.074,3.074,0,0,0-3.132,3.412,3.07,3.07,0,0,0,3.132,3.408,3.6,3.6,0,0,0,2.79-1.426Z" transform="translate(-105.692 -7.204)" fill="#252d41"/>
      <g id="Group_21362" data-name="Group 21362" transform="translate(41.073)">
        <g id="Group_21358" data-name="Group 21358" transform="translate(0 0.09)">
          <path id="Path_42611" data-name="Path 42611" d="M94.3,17.01Zm-2.933,0h-.727V12.2H86.41V27.067h4.226V26.011L90.6,19.057h2.8L92.775,17Z" transform="translate(-86.41 -6.492)" fill="#de373a"/>
          <path id="Path_42610" data-name="Path 42610" d="M86.467.19h3.86c0,2.462-.837,4.449-3.555,4.449H86.42Z" transform="translate(-86.415 -0.19)" fill="#de373a"/>
        </g>
        <g id="Group_21359" data-name="Group 21359" transform="translate(7.885)">
          <path id="Path_42599" data-name="Path 42599" d="M142.487,12.2v6.835h0v8.032h4.22V12.2Zm0,7.852V19.034h0Zm-.846-3.043h-2.3l.566,2.063h2.557V17.009Z" transform="translate(-139.345 -6.401)" fill="#de373a"/>
          <path id="Path_42601" data-name="Path 42601" d="M109.69,4.54V4.126c0-3.151,1.9-4.126,4.249-4.126V4.477Z" transform="translate(-106.51)" fill="#de373a"/>
        </g>
      </g>
    </g>
    <path id="Path_42642" data-name="Path 42642" d="M7.553-51.281H8.74v-3.857h1.323l2.225,3.857h1.483l-2.485-3.993a2.346,2.346,0,0,0,2.152-2.312c0-1.1-.569-2.448-2.806-2.448H7.553ZM8.74-59H10.3c.939,0,1.88.222,1.88,1.409s-.939,1.409-1.88,1.409H8.74Zm11.437,7.715h5.878v-1.113H21.364V-55.2h4.149v-1.113H21.364v-2.609h4.464v-1.113H20.181ZM39.884-58.9a3.84,3.84,0,0,0-3.067-1.36,4.431,4.431,0,0,0-3.309,1.335,4.431,4.431,0,0,0-1.252,3.342,4.507,4.507,0,0,0,1.311,3.2,4.507,4.507,0,0,0,3.189,1.329,4.073,4.073,0,0,0,3.313-1.533l-1-.754a2.7,2.7,0,0,1-2.288,1.174,3.22,3.22,0,0,1-2.377-.994,3.22,3.22,0,0,1-.887-2.419,3.306,3.306,0,0,1,.859-2.489,3.306,3.306,0,0,1,2.4-1.072,2.691,2.691,0,0,1,2.115,1Zm6.684,7.617h1.187v-3.857h1.323L51.3-51.281h1.483L50.3-55.274a2.346,2.346,0,0,0,2.152-2.312c0-1.1-.569-2.448-2.806-2.448H46.573ZM47.756-59h1.558c.939,0,1.88.222,1.88,1.409s-.939,1.409-1.88,1.409H47.76Zm11.276-1.037v5.551a3.3,3.3,0,0,0,.95,2.448,3.3,3.3,0,0,0,2.438.977,3.3,3.3,0,0,0,2.438-.977,3.3,3.3,0,0,0,.95-2.448v-5.551H64.621v5.366a2.245,2.245,0,0,1-.547,1.737,2.245,2.245,0,0,1-1.655.76,2.245,2.245,0,0,1-1.655-.76,2.245,2.245,0,0,1-.547-1.737v-5.366Zm13.935,8.759h1.187v-8.759H72.966Zm10.337,0H84.49v-7.649h2.819v-1.113h-6.82v1.113h2.819Zm10.337,0h5.878v-1.113H94.831V-55.2H98.98v-1.113H94.831v-2.609h4.464v-1.113H93.647Zm12.624,0h1.187v-3.857h1.323L111-51.274h1.483L110-55.268a2.346,2.346,0,0,0,2.152-2.312c0-1.1-.568-2.448-2.806-2.448h-3.075Zm1.187-7.715h1.558c.939,0,1.88.222,1.88,1.409s-.939,1.409-1.88,1.409h-1.554Z" transform="translate(-6.057 89.416)" fill="#de373a"/>
  </g>
</svg>
